<svg class="icon" style="width: 1em;height: 1em;vertical-align: middle;fill: currentColor;overflow: hidden;" viewBox="0 0 1024 1024" version="1.1" xmlns="http://www.w3.org/2000/svg" p-id="3332"><path d="M257.29 874.52a27 27 0 0 1-27-26.95V176.43a27 27 0 0 1 27-27h509.42a27 27 0 0 1 26.95 27v671.14a26.95 26.95 0 0 1-40.56 23.26L512.5 730.08 270.86 870.86a27 27 0 0 1-13.57 3.66z m27-671.13v597.28L499 675.58a26.94 26.94 0 0 1 27.18 0l213.61 125V203.39z" fill="#142E4F" p-id="3333"></path><path d="M636 313.89H388a27 27 0 1 1 0-53.9h248a27 27 0 1 1 0 53.9z" fill="#FF9600" p-id="3334"></path></svg>